# 3ds Max Wavefront OBJ Exporter v0.97b - (c)2007 guruware
# File Created: 15.04.2020 17:06:36

#
# object default
#

v  1.0000 1.0000 -1.0000
v  1.0000 -1.0000 -1.0000
v  -1.0000 -1.0000 -1.0000
v  -1.0000 1.0000 -1.0000
v  -1.0000 -1.0000 1.0000
v  -1.0000 1.0000 1.0000
v  1.0000 -1.0000 1.0000
v  1.0000 1.0000 1.0000
# 8 vertices

vn 0.0000 0.0000 -1.0000
vn -1.0000 -0.0000 -0.0000
vn -0.0000 -0.0000 1.0000
vn -0.0000 0.0000 1.0000
vn 1.0000 -0.0000 0.0000
vn 1.0000 0.0000 0.0000
vn 0.0000 1.0000 -0.0000
vn -0.0000 -1.0000 0.0000
# 8 vertex normals

vt 0.0000 1.0000 0.0000
vt 0.0000 0.0000 0.0000
vt 1.0000 0.0000 0.0000
vt 1.0000 1.0000 0.0000
vt -0.0000 1.0000 0.0000
vt 1.0000 -0.0000 0.0000
vt -0.0000 0.0000 0.0000
# 7 texture coords

o default
g default
f 1/1/1 2/2/1 3/3/1 
f 1/1/1 3/3/1 4/4/1 
f 5/3/2 6/4/2 4/1/2 
f 5/3/2 4/1/2 3/2/2 
f 7/3/3 8/4/3 5/2/3 
f 8/4/4 6/1/4 5/2/4 
f 2/3/5 1/4/5 7/2/5 
f 1/4/6 8/1/6 7/2/6 
f 1/4/7 4/5/7 8/3/7 
f 4/5/7 6/2/7 8/3/7 
f 2/6/8 7/4/8 5/1/8 
f 2/6/8 5/1/8 3/7/8 
# 0 polygons - 12 triangles

