# Blender v2.83.2 OBJ File: ''
# www.blender.org
o Box001_Mesh
v -10.000000 0.000000 10.000000
v 10.000000 0.000000 10.000000
v -10.000000 -0.000000 -10.000000
v 10.000000 -0.000000 -10.000000
v -10.000000 0.000100 10.000000
v 10.000000 0.000100 10.000000
v -10.000000 0.000100 -10.000000
v 10.000000 0.000100 -10.000000
vt 1.000000 1.000000
vt 0.000000 0.000000
vt 1.000000 0.000000
vt 1.000000 0.000000
vt 0.000000 1.000000
vt 0.000000 0.000000
vt 1.000000 0.000000
vt 0.000000 1.000000
vt 0.000000 0.000000
vt 1.000000 0.000000
vt 0.000000 1.000000
vt 1.000000 0.000000
vt 0.000000 1.000000
vt 0.000000 0.000000
vt 0.000000 0.000000
vt 0.000000 1.000000
vt 1.000000 1.000000
vt 1.000000 1.000000
vt 1.000000 1.000000
vt 1.000000 1.000000
vn 0.0000 -1.0000 0.0000
vn 0.0000 1.0000 -0.0000
vn 0.0000 0.0000 1.0000
vn 1.0000 0.0000 0.0000
vn 0.0000 0.0000 -1.0000
vn -1.0000 0.0000 0.0000
s 1
f 3/1/1 2/2/1 1/3/1
f 6/4/2 7/5/2 5/6/2
f 2/7/3 5/8/3 1/9/3
f 4/10/4 6/11/4 2/2/4
f 3/12/5 8/13/5 4/14/5
f 1/3/6 7/5/6 3/15/6
f 3/1/1 4/16/1 2/2/1
f 6/4/2 8/17/2 7/5/2
f 2/7/3 6/18/3 5/8/3
f 4/10/4 8/17/4 6/11/4
f 3/12/5 7/19/5 8/13/5
f 1/3/6 5/20/6 7/5/6
